<?xml version="1.0" encoding="utf-8"?>
<!-- Generator: Adobe Illustrator 26.0.3, SVG Export Plug-In . SVG Version: 6.00 Build 0)  -->
<svg version="1.0" id="katman_1" xmlns="http://www.w3.org/2000/svg" xmlns:xlink="http://www.w3.org/1999/xlink" x="0px" y="0px"
	 viewBox="0 0 800 600" style="enable-background:new 0 0 800 600;" xml:space="preserve">
<style type="text/css">
	.st0{fill-rule:evenodd;clip-rule:evenodd;fill:#0B0E0E;}
</style>
<g id="comma">
	<g id="comma_fill" transform="translate(-86.000000, -22.000000)">
		<g id="comma_fill_1">
			<g id="comma_fill_1_group">
				<g id="comma_fill_1_group_2" transform="translate(86.000000, 22.000000)">
					<path id="Fill-3" class="st0" d="M294.1,540.6c0-11.1-0.9-20.4,0.4-29.4c0.5-3.8,5-7.9,8.7-10.2c17.8-11.3,37.1-20.3,53.6-33.2
						c53.6-41.9,85.4-97.1,87.1-168.8c0.5-20.4-7-25.4-24.1-17.5c-49.3,22.9-102.4,9.5-130.7-33.1c-30.9-46.4-26.5-108.2,10.5-148.7
						c47.3-51.8,125-53.3,178.7-3.9c32.1,29.6,47.4,67.8,51.2,111.3c12.8,145.7-60.3,265.8-193.3,318.5
						C323,530.9,309.5,535.2,294.1,540.6"/>
				</g>
			</g>
		</g>
	</g>
</g>
</svg>
